<mxfile host="app.diagrams.net" agent="Mozilla/5.0 (Windows NT 10.0; Win64; x64) AppleWebKit/537.36 (KHTML, like Gecko) Chrome/138.0.0.0 Safari/537.36 Edg/138.0.0.0" version="27.2.0">
  <diagram name="Page-1" id="_0tpOPSg2hLBpMA6f7jO">
    <mxGraphModel dx="2495" dy="2143" grid="1" gridSize="10" guides="1" tooltips="1" connect="1" arrows="1" fold="1" page="1" pageScale="1" pageWidth="827" pageHeight="1169" math="0" shadow="0">
      <root>
        <mxCell id="0" />
        <mxCell id="1" parent="0" />
        <mxCell id="M5cBxvrzXzzBGcpSKK4V-1" value="" style="rounded=0;whiteSpace=wrap;html=1;fillColor=#6d8764;fontColor=#ffffff;strokeColor=#3A5431;" vertex="1" parent="1">
          <mxGeometry x="30" y="130" width="670" height="480" as="geometry" />
        </mxCell>
        <mxCell id="M5cBxvrzXzzBGcpSKK4V-3" value="&lt;font style=&quot;color: rgb(255, 255, 255);&quot;&gt;&lt;b&gt;Goudurix Calculator&lt;/b&gt;&lt;/font&gt;" style="text;html=1;align=center;verticalAlign=middle;whiteSpace=wrap;rounded=0;" vertex="1" parent="1">
          <mxGeometry x="30" y="140" width="140" height="30" as="geometry" />
        </mxCell>
        <mxCell id="M5cBxvrzXzzBGcpSKK4V-8" style="edgeStyle=orthogonalEdgeStyle;rounded=0;orthogonalLoop=1;jettySize=auto;html=1;entryX=0;entryY=0.5;entryDx=0;entryDy=0;" edge="1" parent="1" source="M5cBxvrzXzzBGcpSKK4V-5" target="M5cBxvrzXzzBGcpSKK4V-7">
          <mxGeometry relative="1" as="geometry">
            <Array as="points">
              <mxPoint y="235" />
              <mxPoint y="200" />
            </Array>
          </mxGeometry>
        </mxCell>
        <mxCell id="M5cBxvrzXzzBGcpSKK4V-28" style="edgeStyle=orthogonalEdgeStyle;rounded=0;orthogonalLoop=1;jettySize=auto;html=1;" edge="1" parent="1">
          <mxGeometry relative="1" as="geometry">
            <mxPoint x="-240" y="90" as="targetPoint" />
            <mxPoint x="-220" y="180" as="sourcePoint" />
          </mxGeometry>
        </mxCell>
        <mxCell id="M5cBxvrzXzzBGcpSKK4V-5" value="&lt;b&gt;&lt;font style=&quot;font-size: 11px;&quot;&gt;Goudurix App&lt;/font&gt;&lt;/b&gt;&lt;div&gt;&lt;font style=&quot;font-size: 11px;&quot;&gt;Application Web&lt;/font&gt;&lt;/div&gt;" style="whiteSpace=wrap;html=1;aspect=fixed;fillColor=#bac8d3;strokeColor=#23445d;" vertex="1" parent="1">
          <mxGeometry x="-290" y="180" width="110" height="110" as="geometry" />
        </mxCell>
        <mxCell id="M5cBxvrzXzzBGcpSKK4V-7" value="&lt;b&gt;View&lt;/b&gt;&lt;div&gt;[Class]&lt;/div&gt;&lt;div&gt;Contient les portefeuilles intitial et final et des informations pour initialiser l&#39;application&lt;/div&gt;" style="rounded=0;whiteSpace=wrap;html=1;fillColor=#b1ddf0;strokeColor=#10739e;" vertex="1" parent="1">
          <mxGeometry x="260" y="160" width="240" height="80" as="geometry" />
        </mxCell>
        <mxCell id="M5cBxvrzXzzBGcpSKK4V-9" value="Crée ou modifie 1 instance" style="text;html=1;align=center;verticalAlign=middle;resizable=0;points=[];autosize=1;strokeColor=none;fillColor=none;" vertex="1" parent="1">
          <mxGeometry x="-180" y="180" width="170" height="30" as="geometry" />
        </mxCell>
        <mxCell id="M5cBxvrzXzzBGcpSKK4V-13" value="" style="edgeStyle=orthogonalEdgeStyle;rounded=0;orthogonalLoop=1;jettySize=auto;html=1;entryX=-0.015;entryY=0.333;entryDx=0;entryDy=0;entryPerimeter=0;" edge="1" parent="1" source="M5cBxvrzXzzBGcpSKK4V-10" target="M5cBxvrzXzzBGcpSKK4V-12">
          <mxGeometry relative="1" as="geometry" />
        </mxCell>
        <mxCell id="M5cBxvrzXzzBGcpSKK4V-15" value="" style="edgeStyle=orthogonalEdgeStyle;rounded=0;orthogonalLoop=1;jettySize=auto;html=1;" edge="1" parent="1" source="M5cBxvrzXzzBGcpSKK4V-10" target="M5cBxvrzXzzBGcpSKK4V-14">
          <mxGeometry relative="1" as="geometry" />
        </mxCell>
        <mxCell id="M5cBxvrzXzzBGcpSKK4V-19" value="" style="edgeStyle=orthogonalEdgeStyle;rounded=0;orthogonalLoop=1;jettySize=auto;html=1;exitX=1;exitY=0.75;exitDx=0;exitDy=0;" edge="1" parent="1" source="M5cBxvrzXzzBGcpSKK4V-10" target="M5cBxvrzXzzBGcpSKK4V-18">
          <mxGeometry relative="1" as="geometry" />
        </mxCell>
        <mxCell id="M5cBxvrzXzzBGcpSKK4V-44" style="edgeStyle=orthogonalEdgeStyle;rounded=0;orthogonalLoop=1;jettySize=auto;html=1;entryX=0.5;entryY=0;entryDx=0;entryDy=0;" edge="1" parent="1" source="M5cBxvrzXzzBGcpSKK4V-10" target="M5cBxvrzXzzBGcpSKK4V-23">
          <mxGeometry relative="1" as="geometry">
            <Array as="points">
              <mxPoint x="-240" y="330" />
            </Array>
          </mxGeometry>
        </mxCell>
        <mxCell id="M5cBxvrzXzzBGcpSKK4V-10" value="&lt;b&gt;fund_data&lt;/b&gt;&lt;div&gt;[Class]&lt;/div&gt;&lt;div&gt;Contient les données d&#39;entrée des calculs, les instruments et le benchmark.&lt;/div&gt;" style="rounded=0;whiteSpace=wrap;html=1;fillColor=#b0e3e6;strokeColor=#0e8088;" vertex="1" parent="1">
          <mxGeometry x="40" y="290" width="210" height="80" as="geometry" />
        </mxCell>
        <mxCell id="M5cBxvrzXzzBGcpSKK4V-12" value="&lt;b&gt;metrics&lt;/b&gt;&lt;br&gt;&lt;div&gt;[Class]&lt;/div&gt;&lt;div&gt;Contient l&#39;ensemble des métriques auxquels on s&#39;intérésse&lt;/div&gt;" style="rounded=0;whiteSpace=wrap;html=1;fillColor=#d0cee2;strokeColor=#56517e;" vertex="1" parent="1">
          <mxGeometry x="490" y="300" width="200" height="90" as="geometry" />
        </mxCell>
        <mxCell id="M5cBxvrzXzzBGcpSKK4V-16" style="edgeStyle=orthogonalEdgeStyle;rounded=0;orthogonalLoop=1;jettySize=auto;html=1;exitX=1;exitY=0.5;exitDx=0;exitDy=0;" edge="1" parent="1" source="M5cBxvrzXzzBGcpSKK4V-14" target="M5cBxvrzXzzBGcpSKK4V-12">
          <mxGeometry relative="1" as="geometry" />
        </mxCell>
        <mxCell id="M5cBxvrzXzzBGcpSKK4V-14" value="&lt;b&gt;instrument_data&lt;/b&gt;&lt;div&gt;[Class]&lt;b&gt;&lt;br&gt;&lt;/b&gt;&lt;div&gt;Contient les données d&#39;entrée des calculs relatifs à un seul instrument&lt;br&gt;&lt;div&gt;&lt;br&gt;&lt;/div&gt;&lt;/div&gt;&lt;/div&gt;" style="rounded=0;whiteSpace=wrap;html=1;fillColor=#fad7ac;strokeColor=#b46504;" vertex="1" parent="1">
          <mxGeometry x="40" y="500" width="210" height="85" as="geometry" />
        </mxCell>
        <mxCell id="M5cBxvrzXzzBGcpSKK4V-18" value="&lt;b&gt;benchmark_data&lt;/b&gt;&lt;div&gt;[Class]&lt;/div&gt;&lt;div&gt;Contient les données d&#39;entrée des calculs relatifs au benchmark&lt;/div&gt;" style="rounded=0;whiteSpace=wrap;html=1;fillColor=#bac8d3;strokeColor=#23445d;" vertex="1" parent="1">
          <mxGeometry x="274" y="400" width="150" height="80" as="geometry" />
        </mxCell>
        <mxCell id="M5cBxvrzXzzBGcpSKK4V-21" style="edgeStyle=orthogonalEdgeStyle;rounded=0;orthogonalLoop=1;jettySize=auto;html=1;" edge="1" parent="1" source="M5cBxvrzXzzBGcpSKK4V-18">
          <mxGeometry relative="1" as="geometry">
            <mxPoint x="558" y="390" as="targetPoint" />
          </mxGeometry>
        </mxCell>
        <mxCell id="M5cBxvrzXzzBGcpSKK4V-23" value="&lt;b&gt;Reflix&lt;/b&gt;&lt;div&gt;[Base de données]&lt;/div&gt;" style="shape=datastore;whiteSpace=wrap;html=1;fillColor=#f8cecc;strokeColor=#b85450;" vertex="1" parent="1">
          <mxGeometry x="-330" y="420" width="180" height="205" as="geometry" />
        </mxCell>
        <mxCell id="M5cBxvrzXzzBGcpSKK4V-25" style="edgeStyle=orthogonalEdgeStyle;rounded=0;orthogonalLoop=1;jettySize=auto;html=1;entryX=0.994;entryY=0.229;entryDx=0;entryDy=0;entryPerimeter=0;" edge="1" parent="1" source="M5cBxvrzXzzBGcpSKK4V-18" target="M5cBxvrzXzzBGcpSKK4V-23">
          <mxGeometry relative="1" as="geometry" />
        </mxCell>
        <mxCell id="M5cBxvrzXzzBGcpSKK4V-26" style="edgeStyle=orthogonalEdgeStyle;rounded=0;orthogonalLoop=1;jettySize=auto;html=1;entryX=0.983;entryY=0.6;entryDx=0;entryDy=0;entryPerimeter=0;" edge="1" parent="1" source="M5cBxvrzXzzBGcpSKK4V-14" target="M5cBxvrzXzzBGcpSKK4V-23">
          <mxGeometry relative="1" as="geometry" />
        </mxCell>
        <mxCell id="M5cBxvrzXzzBGcpSKK4V-27" value="&lt;b&gt;views_database&lt;/b&gt;&lt;br&gt;&lt;div&gt;[Dictionnaire Python]&lt;/div&gt;" style="shape=datastore;whiteSpace=wrap;html=1;fillColor=#f8cecc;strokeColor=#b85450;" vertex="1" parent="1">
          <mxGeometry x="-300" y="-60" width="120" height="145" as="geometry" />
        </mxCell>
        <mxCell id="M5cBxvrzXzzBGcpSKK4V-29" value="Stock l&#39;instance view en&amp;nbsp;&lt;div&gt;l&#39;associant avec l&#39;id de session&lt;/div&gt;" style="text;html=1;align=right;verticalAlign=middle;resizable=0;points=[];autosize=1;strokeColor=none;fillColor=none;" vertex="1" parent="1">
          <mxGeometry x="-440" y="120" width="190" height="40" as="geometry" />
        </mxCell>
        <mxCell id="M5cBxvrzXzzBGcpSKK4V-30" value="Requête les données" style="text;html=1;align=center;verticalAlign=middle;resizable=0;points=[];autosize=1;strokeColor=none;fillColor=none;" vertex="1" parent="1">
          <mxGeometry x="-170" y="300" width="140" height="30" as="geometry" />
        </mxCell>
        <mxCell id="M5cBxvrzXzzBGcpSKK4V-31" value="Requête les données" style="text;html=1;align=center;verticalAlign=middle;resizable=0;points=[];autosize=1;strokeColor=none;fillColor=none;" vertex="1" parent="1">
          <mxGeometry x="-110" y="440" width="140" height="30" as="geometry" />
        </mxCell>
        <mxCell id="M5cBxvrzXzzBGcpSKK4V-32" value="Requête les données" style="text;html=1;align=center;verticalAlign=middle;resizable=0;points=[];autosize=1;strokeColor=none;fillColor=none;" vertex="1" parent="1">
          <mxGeometry x="-110" y="520" width="140" height="30" as="geometry" />
        </mxCell>
        <mxCell id="M5cBxvrzXzzBGcpSKK4V-35" style="edgeStyle=orthogonalEdgeStyle;rounded=0;orthogonalLoop=1;jettySize=auto;html=1;entryX=0.5;entryY=0;entryDx=0;entryDy=0;exitX=0.25;exitY=1;exitDx=0;exitDy=0;" edge="1" parent="1" source="M5cBxvrzXzzBGcpSKK4V-7" target="M5cBxvrzXzzBGcpSKK4V-10">
          <mxGeometry relative="1" as="geometry" />
        </mxCell>
        <mxCell id="M5cBxvrzXzzBGcpSKK4V-36" value="Crée 2 instances" style="text;html=1;align=center;verticalAlign=middle;whiteSpace=wrap;rounded=0;fontColor=#FFFFFF;" vertex="1" parent="1">
          <mxGeometry x="126" y="240" width="134" height="30" as="geometry" />
        </mxCell>
        <mxCell id="M5cBxvrzXzzBGcpSKK4V-38" value="Crée 1 ou * instances" style="text;html=1;align=center;verticalAlign=middle;whiteSpace=wrap;rounded=0;fontColor=#FFFFFF;" vertex="1" parent="1">
          <mxGeometry x="140" y="460" width="134" height="30" as="geometry" />
        </mxCell>
        <mxCell id="M5cBxvrzXzzBGcpSKK4V-39" value="Crée 1 ou * instances" style="text;html=1;align=center;verticalAlign=middle;whiteSpace=wrap;rounded=0;fontColor=#FFFFFF;" vertex="1" parent="1">
          <mxGeometry x="264" y="520" width="134" height="30" as="geometry" />
        </mxCell>
        <mxCell id="M5cBxvrzXzzBGcpSKK4V-40" value="Crée 1 ou * instances" style="text;html=1;align=center;verticalAlign=middle;whiteSpace=wrap;rounded=0;fontColor=#FFFFFF;" vertex="1" parent="1">
          <mxGeometry x="360" y="310" width="134" height="30" as="geometry" />
        </mxCell>
        <mxCell id="M5cBxvrzXzzBGcpSKK4V-41" value="Crée 1 instance" style="text;html=1;align=center;verticalAlign=middle;whiteSpace=wrap;rounded=0;fontColor=#FFFFFF;" vertex="1" parent="1">
          <mxGeometry x="330" y="360" width="134" height="30" as="geometry" />
        </mxCell>
        <mxCell id="M5cBxvrzXzzBGcpSKK4V-42" value="Crée 1 ou * instances" style="text;html=1;align=center;verticalAlign=middle;whiteSpace=wrap;rounded=0;fontColor=#FFFFFF;" vertex="1" parent="1">
          <mxGeometry x="420" y="420" width="134" height="30" as="geometry" />
        </mxCell>
        <mxCell id="M5cBxvrzXzzBGcpSKK4V-43" value="&lt;h1 style=&quot;margin-top: 0px;&quot;&gt;[Composant] Goudurix Calculator&lt;/h1&gt;&lt;p&gt;Lorem ipsum dolor sit amet, consectetur adipisicing elit, sed do eiusmod tempor incididunt ut labore et dolore magna aliqua.&lt;/p&gt;" style="text;html=1;whiteSpace=wrap;overflow=hidden;rounded=0;" vertex="1" parent="1">
          <mxGeometry y="-50" width="470" height="120" as="geometry" />
        </mxCell>
      </root>
    </mxGraphModel>
  </diagram>
</mxfile>
